<svg xmlns="http://www.w3.org/2000/svg" xmlns:xlink="http://www.w3.org/1999/xlink" viewBox="0,0,256,256" width="48px" height="48px" fill-rule="none"><defs><linearGradient x1="6.485" y1="6.483" x2="37.501" y2="37.498" gradientUnits="userSpaceOnUse" id="color-1"><stop offset="0" stop-color="#f5af89"></stop><stop offset="1" stop-color="#ff8f52"></stop></linearGradient></defs><g fill="none" fill-rule="none" stroke="none" stroke-width="1" stroke-linecap="butt" stroke-linejoin="miter" stroke-miterlimit="10" stroke-dasharray="" stroke-dashoffset="0" font-family="none" font-weight="none" font-size="none" text-anchor="none" style="mix-blend-mode: normal"><g transform="scale(5.33333,5.33333)"><path d="M6,9.446v29.105c0,1.901 1.544,3.445 3.445,3.445h29.111c1.901,0 3.445,-1.544 3.445,-3.445v-29.105c0,-1.901 -1.544,-3.445 -3.445,-3.445h-29.11c-1.902,0 -3.446,1.544 -3.446,3.445z" fill="url(#color-1)" fill-rule="nonzero"></path><path d="M13.001,29.999l-0.001,-12c0,-3.312 2.689,-6 6.001,-6h5.999c3.312,0 6.001,2.688 6.001,6l-0.001,3c0,1.104 0.897,2.001 2.001,2.001c1.104,0 2,0.895 2,1.999c0,0.731 0.001,3.789 0.001,5c0,3.312 -2.689,6 -6.001,6h-9.999c-3.312,0 -6.001,-2.688 -6.001,-6zM29.001,27.999c0,-1.103 -0.897,-2 -2,-2h-7c-1.104,0 -2,0.897 -2,2c0,1.104 0.896,2 2,2h7c1.102,0 2,-0.896 2,-2zM27.013,18.999c0,-1.103 -0.897,-2 -2,-2h-5.024c-1.104,0 -2,0.897 -2,2c0,1.104 0.896,2 2,2h5.024c1.102,0 2,-0.896 2,-2z" fill="#ffffff" fill-rule="evenodd"></path></g></g></svg>